PathFileType  4	(X/Y/Z) C:\Users\antoi\Documents\MyRepositories\mobilecap\ResultsAnalysis
DataRate	CameraRate	NumFrames	NumMarkers	Units	OrigDataRate	OrigDataStartFrame	OrigNumFrames
100.0	100.0	5	51	mm	100.0	68	135
Frame#	Time	r_knee			r_shank_antsup			r_ankle			r_calc			r_5meta			r_toe			L_knee			L_shank_antsup			L_ankle			L_calc			L_5meta			L_toe			r_sh2			r_sh3			r_sh4			L_sh2			L_sh3			r_thigh1			r_thigh2			r_thigh3			r_thigh4			r_thigh5			L_thigh1			L_thigh2			L_thigh3			L_thigh4			r.ASIS			r.PSIS			L.ASIS			L.PSIS			C7			R_Shoulder			L_Shoulder			R_Sternum			L_Sternum			R_humerus			R_elbow_med			R_elbow_lat			R_forearm			R_wrist_radius			R_wrist_ulna			L_humerus			L_elbow_med			L_elbow_lat			L_forearm			L_wrist_radius			L_wrist_ulna			R_HJC			L_HJC			R_HJC_reg			L_HJC_reg			
		X1	Y1	Z1	X2	Y2	Z2	X3	Y3	Z3	X4	Y4	Z4	X5	Y5	Z5	X6	Y6	Z6	X7	Y7	Z7	X8	Y8	Z8	X9	Y9	Z9	X10	Y10	Z10	X11	Y11	Z11	X12	Y12	Z12	X13	Y13	Z13	X14	Y14	Z14	X15	Y15	Z15	X16	Y16	Z16	X17	Y17	Z17	X18	Y18	Z18	X19	Y19	Z19	X20	Y20	Z20	X21	Y21	Z21	X22	Y22	Z22	X23	Y23	Z23	X24	Y24	Z24	X25	Y25	Z25	X26	Y26	Z26	X27	Y27	Z27	X28	Y28	Z28	X29	Y29	Z29	X30	Y30	Z30	X31	Y31	Z31	X32	Y32	Z32	X33	Y33	Z33	X34	Y34	Z34	X35	Y35	Z35	X36	Y36	Z36	X37	Y37	Z37	X38	Y38	Z38	X39	Y39	Z39	X40	Y40	Z40	X41	Y41	Z41	X42	Y42	Z42	X43	Y43	Z43	X44	Y44	Z44	X45	Y45	Z45	X46	Y46	Z46	X47	Y47	Z47	X48	Y48	Z48	X49	Y49	Z49	X50	Y50	Z50	X51	Y51	Z51	

68	0.67000000	712.28422	458.40360	-30.57909	697.13397	377.91269	-43.60228	401.57208	203.27243	-48.20576	334.52978	230.35615	-89.53642	421.84042	82.12172	-19.91026	481.43766	69.35946	-67.49677	865.32349	496.13688	-373.28780	909.22958	405.07795	-383.53346	855.31790	97.27189	-366.83648	792.36853	62.37793	-317.87563	958.43431	43.56347	-412.94688	1004.68827	70.30803	-360.50179	598.12072	319.96492	-20.21155	653.84413	442.44522	-16.51028	558.55954	381.87525	-17.00935	820.59698	414.90984	-379.55064	819.99827	293.40366	-389.94954	796.63899	770.29370	-29.15672	789.75211	657.38942	-27.30640	731.08896	639.60477	1.16171	684.03352	775.84754	-7.99394	678.90383	659.95018	-13.30524	796.06379	757.29743	-407.54282	854.26077	632.49637	-393.40596	698.35908	713.27765	-359.60570	760.38195	586.96909	-354.06411	816.35969	945.81157	-74.65387	624.29381	982.54974	-148.98316	811.91083	935.58974	-324.91641	611.69847	988.17518	-248.91478	635.24126	1398.19222	-268.20285	755.06601	1395.91329	-104.33692	682.98093	1326.91587	-441.79969	773.17547	1359.30249	-260.02063	772.58041	1351.60832	-302.33972	783.05833	1286.07723	-13.40973	737.39448	1069.58505	22.34887	764.69067	1107.39397	80.19685	883.09570	1024.99807	81.03353	974.60262	924.77699	85.21778	959.31036	913.98409	116.01483	686.39506	1211.18383	-496.75400	584.69758	997.52238	-452.91143	627.20226	1007.77720	-518.13324	683.99474	907.21036	-490.12979	708.09721	750.54106	-470.08822	693.33494	748.97695	-504.32945	737.66683	865.79688	-95.81265	732.01955	863.33190	-302.18503	753.45476	860.89260	-105.82856	732.81447	870.11085	-269.59614	
69	0.68000000	736.73506	455.03730	-31.33065	719.81404	375.51008	-44.87267	417.90562	213.11771	-50.87963	352.53900	243.01037	-92.99673	432.92867	91.39506	-21.50002	492.55274	75.75447	-68.23468	876.99921	495.79725	-376.90596	918.53900	403.09336	-386.87605	856.13176	97.22405	-367.07617	792.61262	62.56894	-317.90509	958.55551	43.04470	-413.70357	1005.04328	68.96630	-360.89937	618.62354	321.38970	-21.97457	678.80260	441.75521	-17.92339	581.40062	384.70107	-18.93983	830.16271	415.37601	-383.38625	826.53767	293.72680	-392.53253	810.95365	768.80147	-30.44837	807.94327	655.61120	-27.76251	749.74823	636.28345	0.32625	698.22829	770.94921	-10.26589	697.01581	654.94013	-14.37866	808.07219	757.57809	-410.36197	866.11101	632.60795	-396.78948	710.05123	712.94862	-363.57884	772.20602	586.72651	-358.40665	826.88444	943.47675	-76.56101	634.97832	979.98384	-149.91402	822.67140	934.72637	-326.89394	622.50099	986.83780	-249.88503	647.13418	1396.19747	-273.14365	765.63528	1395.39357	-108.21562	696.55046	1323.32943	-445.59428	784.93471	1357.43191	-263.57039	784.82037	1349.21797	-305.81712	792.25499	1286.03590	-16.06590	744.59665	1070.20360	20.92566	771.24034	1108.27435	78.99534	889.50356	1025.50864	81.63888	980.38945	924.78507	87.17236	964.73811	914.24415	117.85130	701.65167	1207.26948	-499.61758	601.43000	992.68896	-455.77903	644.41264	1003.12298	-520.53229	701.53936	902.92522	-492.38284	726.15712	746.21028	-472.33320	711.95597	744.78292	-506.65639	748.64512	863.30813	-98.00122	742.72875	862.33596	-304.37021	764.44196	857.73301	-108.91416	744.01383	868.95295	-272.58866	
70	0.69000000	760.96135	452.52068	-32.27522	742.62040	373.86339	-46.19219	435.49311	222.57185	-53.86202	371.48475	254.48328	-96.56188	446.66481	100.82152	-23.36832	506.10896	82.84257	-69.59864	888.19351	495.09625	-380.49752	927.48955	400.91847	-390.17911	856.82698	97.20695	-367.27121	792.84619	62.73494	-317.91464	958.65198	42.64193	-414.33708	1005.33750	67.87396	-361.24318	639.58128	323.25574	-23.99228	703.60841	441.72634	-19.74699	604.43305	387.89561	-21.26226	839.42052	415.55628	-387.12543	832.80580	293.84506	-394.92086	824.82813	767.75268	-31.48664	825.75136	654.37850	-28.13550	768.02213	633.48435	-0.63696	712.04362	766.37501	-12.32660	714.81729	650.40542	-15.67854	819.89999	757.60869	-413.13256	877.57850	632.34821	-400.23272	721.53864	712.43988	-367.53386	783.74141	586.21957	-362.87446	837.14256	940.68839	-78.26330	645.35812	977.19174	-150.62566	833.31224	933.65546	-328.77230	633.11917	985.26594	-250.67553	658.91256	1394.13584	-277.85702	776.14268	1394.57443	-111.79593	710.06412	1319.55679	-449.21846	796.59906	1355.43516	-266.88430	796.99930	1346.72863	-309.05622	801.23005	1285.65945	-18.47221	751.60491	1070.46596	19.71045	777.61334	1108.85372	77.92322	895.77576	1025.79687	82.39490	985.97572	924.57186	89.18012	969.99602	914.26560	119.72544	716.91890	1203.15893	-502.20708	618.54656	987.49514	-458.21395	661.90751	998.26181	-522.54426	719.41107	898.43301	-494.42135	744.67289	741.67753	-474.66307	730.96201	740.39014	-509.02901	759.32925	860.44033	-100.10086	753.20628	861.15127	-306.46009	775.01156	854.32940	-111.87570	754.99042	867.53482	-275.53352	
71	0.70000000	784.86300	450.98585	-33.37393	765.54792	373.00887	-47.54146	454.33004	231.32180	-57.07961	391.27847	264.57043	-100.11487	463.02632	109.87555	-25.61989	522.13816	90.17192	-71.69591	898.72732	494.02967	-383.88184	936.00236	398.61015	-393.22582	857.43714	97.21655	-367.40608	793.07992	62.88428	-317.89750	958.73501	42.31485	-414.82902	1005.60664	66.99501	-361.51601	660.97052	325.48859	-26.22654	728.23653	442.30925	-21.81563	627.60836	391.33337	-23.81993	848.27977	415.45632	-390.58799	838.78127	293.77774	-397.02160	838.21663	767.26554	-32.34585	843.04765	653.82185	-28.50253	785.71950	631.32224	-1.77859	725.41401	762.28076	-14.24834	732.16812	646.48002	-17.29704	831.42264	757.36562	-415.73410	888.51656	631.68590	-403.57123	732.72256	711.82420	-371.21221	794.87491	585.48075	-367.17684	847.18142	937.64132	-79.75213	655.46090	974.34679	-151.26890	843.88731	932.43596	-330.53251	643.58806	983.53661	-251.44382	670.56412	1392.09587	-282.33741	786.56700	1393.52825	-115.04932	723.52969	1315.68285	-452.66634	808.16765	1353.37946	-269.94211	809.09594	1344.22503	-312.03603	809.95218	1285.01204	-20.61718	758.44390	1070.40831	18.68532	783.83901	1109.16742	76.94921	901.89671	1025.86400	83.26818	991.37878	924.16314	91.24857	975.09259	914.06210	121.64079	732.18168	1198.93536	-504.49214	636.07336	982.05400	-460.14197	679.69608	993.30366	-524.11547	737.61999	893.83589	-496.22030	763.68715	737.07086	-477.08529	750.29322	735.88068	-511.43734	769.72464	857.38937	-102.10654	763.53688	859.83324	-308.45209	785.18899	850.91021	-114.61974	765.78174	865.92842	-278.34880	
72	0.71000000	808.40397	450.45028	-34.59273	788.61263	372.90507	-48.95963	474.36795	239.09076	-60.46641	411.83423	273.13049	-103.57943	481.83289	118.07916	-28.34669	540.54753	97.30266	-74.57493	908.49547	492.66379	-386.89175	944.01505	396.26016	-395.83108	857.99513	97.25850	-367.47728	793.30836	63.02777	-317.85055	958.80716	42.04485	-415.18454	1005.86971	66.29925	-361.71339	682.78022	327.95144	-28.64611	752.69532	443.36817	-23.92716	650.91211	394.80655	-26.41710	856.65526	415.12679	-393.61913	844.44213	293.57269	-398.78011	851.11050	767.38301	-33.10707	859.75263	654.00038	-28.92536	802.73571	629.85404	-3.10953	738.32511	758.75107	-16.14883	748.98551	643.19810	-19.28312	842.53272	756.87695	-418.05394	898.86450	630.68297	-406.62350	743.52642	711.20413	-374.39338	805.50858	584.60128	-371.04655	857.04692	934.60603	-81.03306	665.33732	971.67162	-152.01370	854.42072	931.13082	-332.15849	653.93564	981.77679	-252.35470	682.08335	1390.17931	-286.58769	796.88401	1392.36187	-117.96943	736.94780	1311.81607	-455.93034	819.64480	1351.34220	-272.73429	821.08573	1341.79235	-314.75215	818.39939	1284.19386	-22.50809	765.14575	1070.09971	17.80460	789.94041	1109.27426	76.02805	907.83278	1025.72291	84.20850	996.60617	923.59965	93.37783	980.01403	913.66417	123.59505	747.40431	1194.71232	-506.44438	654.02762	976.50691	-461.49488	697.77790	988.38183	-525.20172	756.18104	889.26711	-497.75862	783.21225	732.54140	-479.59353	769.89555	731.37173	-513.86308	779.83540	854.41966	-103.99953	773.78639	858.45309	-310.33184	795.02841	847.73288	-117.04864	776.40395	864.23676	-280.93748	
